<svg xmlns="http://www.w3.org/2000/svg" width="1200" height="675" viewBox="0 0 1200 675">
<rect width="1200" height="675" fill="#f6f8fb"/>
<rect x="52" y="48" width="1096" height="579" rx="34" fill="#ffffff" stroke="#d9e2ec" stroke-width="2"/>
<text x="92" y="105" font-family="Apple SD Gothic Neo, Nanum Gothic, Noto Sans CJK KR, Noto Sans KR, sans-serif" font-size="25" font-weight="800" fill="#39607a">검증노트 · 온라인 판매 준비</text>
<line x1="92" y1="128" x2="386" y2="128" stroke="#a9c6d9" stroke-width="4" stroke-linecap="round"/><text x="92" y="205" font-family="Apple SD Gothic Neo, Nanum Gothic, Noto Sans CJK KR, Noto Sans KR, sans-serif" font-size="54" font-weight="800" fill="#142c44" text-anchor="start">신고 전 준비 체크</text><text x="92" y="263" font-family="Apple SD Gothic Neo, Nanum Gothic, Noto Sans CJK KR, Noto Sans KR, sans-serif" font-size="32" font-weight="700" fill="#3f6178" text-anchor="start">서류보다 먼저 정보가 흩어지지 않게</text><rect x="92" y="295" width="440" height="62" rx="17" fill="#fff6e8" stroke="#efd9b3" stroke-width="2"/><circle cx="126" cy="326" r="17" fill="#e29b31"/><path d="M117 325 L124 333 L137 318" fill="none" stroke="#fff" stroke-width="5" stroke-linecap="round" stroke-linejoin="round"/><text x="160" y="335" font-family="Apple SD Gothic Neo, Nanum Gothic, Noto Sans CJK KR, Noto Sans KR, sans-serif" font-size="26" font-weight="800" fill="#3e3528" text-anchor="start">사업자등록번호</text><rect x="92" y="377" width="440" height="62" rx="17" fill="#fff6e8" stroke="#efd9b3" stroke-width="2"/><circle cx="126" cy="408" r="17" fill="#e29b31"/><path d="M117 407 L124 415 L137 400" fill="none" stroke="#fff" stroke-width="5" stroke-linecap="round" stroke-linejoin="round"/><text x="160" y="417" font-family="Apple SD Gothic Neo, Nanum Gothic, Noto Sans CJK KR, Noto Sans KR, sans-serif" font-size="26" font-weight="800" fill="#3e3528" text-anchor="start">사업장 주소</text><rect x="92" y="459" width="440" height="62" rx="17" fill="#fff6e8" stroke="#efd9b3" stroke-width="2"/><circle cx="126" cy="490" r="17" fill="#e29b31"/><path d="M117 489 L124 497 L137 482" fill="none" stroke="#fff" stroke-width="5" stroke-linecap="round" stroke-linejoin="round"/><text x="160" y="499" font-family="Apple SD Gothic Neo, Nanum Gothic, Noto Sans CJK KR, Noto Sans KR, sans-serif" font-size="26" font-weight="800" fill="#3e3528" text-anchor="start">대표자 정보</text><rect x="612" y="295" width="440" height="62" rx="17" fill="#fff6e8" stroke="#efd9b3" stroke-width="2"/><circle cx="646" cy="326" r="17" fill="#e29b31"/><path d="M637 325 L644 333 L657 318" fill="none" stroke="#fff" stroke-width="5" stroke-linecap="round" stroke-linejoin="round"/><text x="680" y="335" font-family="Apple SD Gothic Neo, Nanum Gothic, Noto Sans CJK KR, Noto Sans KR, sans-serif" font-size="26" font-weight="800" fill="#3e3528" text-anchor="start">판매 채널 주소</text><rect x="612" y="377" width="440" height="62" rx="17" fill="#fff6e8" stroke="#efd9b3" stroke-width="2"/><circle cx="646" cy="408" r="17" fill="#e29b31"/><path d="M637 407 L644 415 L657 400" fill="none" stroke="#fff" stroke-width="5" stroke-linecap="round" stroke-linejoin="round"/><text x="680" y="417" font-family="Apple SD Gothic Neo, Nanum Gothic, Noto Sans CJK KR, Noto Sans KR, sans-serif" font-size="26" font-weight="800" fill="#3e3528" text-anchor="start">구매안전서비스 확인증</text><rect x="612" y="459" width="440" height="62" rx="17" fill="#fff6e8" stroke="#efd9b3" stroke-width="2"/><circle cx="646" cy="490" r="17" fill="#e29b31"/><path d="M637 489 L644 497 L657 482" fill="none" stroke="#fff" stroke-width="5" stroke-linecap="round" stroke-linejoin="round"/><text x="680" y="499" font-family="Apple SD Gothic Neo, Nanum Gothic, Noto Sans CJK KR, Noto Sans KR, sans-serif" font-size="26" font-weight="800" fill="#3e3528" text-anchor="start">최근 거래 자료</text><text x="92" y="602" font-family="Apple SD Gothic Neo, Nanum Gothic, Noto Sans CJK KR, Noto Sans KR, sans-serif" font-size="24" font-weight="700" fill="#6d7c88" text-anchor="start">개인 상황에 따라 추가 서류가 있을 수 있습니다. 관할 구청 안내를 같이 보세요.</text></svg>