<svg xmlns="http://www.w3.org/2000/svg" width="1200" height="675" viewBox="0 0 1200 675">
<rect width="1200" height="675" fill="#fff7ed"/>

<rect x="48" y="48" width="1104" height="579" rx="38" fill="#fffaf3" stroke="#fed7aa" stroke-width="2"/>
<rect x="86" y="82" width="1028" height="511" rx="30" fill="#ffffff"/>
<text x="104" y="124" font-family="Apple SD Gothic Neo, Nanum Gothic, Noto Sans CJK KR, Noto Sans KR, sans-serif" font-size="25" font-weight="800" fill="#ea580c">10분 매장 체크</text>
<line x1="104" y1="144" x2="330" y2="144" stroke="#fb923c" stroke-width="5" stroke-linecap="round" opacity="0.35"/>
<text x="104" y="228" font-family="Apple SD Gothic Neo, Nanum Gothic, Noto Sans CJK KR, Noto Sans KR, sans-serif" font-size="60" font-weight="800" text-anchor="start" fill="#111827">음식점 위생교육</text>
<text x="104" y="295" font-family="Apple SD Gothic Neo, Nanum Gothic, Noto Sans CJK KR, Noto Sans KR, sans-serif" font-size="60" font-weight="800" text-anchor="start" fill="#111827">올해 들었나요?</text>
<text x="108" y="385" font-family="Apple SD Gothic Neo, Nanum Gothic, Noto Sans CJK KR, Noto Sans KR, sans-serif" font-size="28" font-weight="700" fill="#475569">신규/기존부터 가볍게 나눠보세요</text>
<rect x="104" y="430" width="148" height="48" rx="24" fill="#fff7ed" stroke="#fed7aa" stroke-width="2"/>
<text x="178" y="455" font-family="Apple SD Gothic Neo, Nanum Gothic, Noto Sans CJK KR, Noto Sans KR, sans-serif" font-size="22" font-weight="800" text-anchor="middle" dominant-baseline="central" fill="#9a3412">업종명</text>
<rect x="272" y="430" width="172" height="48" rx="24" fill="#ecfeff" stroke="#a5f3fc" stroke-width="2"/>
<text x="358" y="455" font-family="Apple SD Gothic Neo, Nanum Gothic, Noto Sans CJK KR, Noto Sans KR, sans-serif" font-size="22" font-weight="800" text-anchor="middle" dominant-baseline="central" fill="#155e75">교육기관</text>
<rect x="464" y="430" width="204" height="48" rx="24" fill="#f0fdf4" stroke="#bbf7d0" stroke-width="2"/>
<text x="566" y="455" font-family="Apple SD Gothic Neo, Nanum Gothic, Noto Sans CJK KR, Noto Sans KR, sans-serif" font-size="22" font-weight="800" text-anchor="middle" dominant-baseline="central" fill="#166534">수료증 저장</text>
<rect x="792" y="148" width="214" height="244" rx="28" fill="#ffedd5" stroke="#fdba74" stroke-width="3"/>
<rect x="820" y="190" width="158" height="154" rx="18" fill="#ffffff"/>
<line x1="844" y1="232" x2="954" y2="232" stroke="#fdba74" stroke-width="8" stroke-linecap="round"/>
<line x1="844" y1="274" x2="954" y2="274" stroke="#fdba74" stroke-width="8" stroke-linecap="round" opacity="0.75"/>
<circle cx="836" cy="184" r="14" fill="#ea580c"/>
<circle cx="962" cy="184" r="14" fill="#ea580c"/>
<circle cx="1010" cy="156" r="48" fill="#fb923c" opacity="0.18"/>
<circle cx="724" cy="450" r="33" fill="#22c55e" opacity="0.15"/>
<circle cx="840" cy="450" r="46" fill="#f97316"/>
<path d="M 825.6 450.0 L 836.8 462.8 L 859.2 434.0" fill="none" stroke="#fff" stroke-width="8.0" stroke-linecap="round" stroke-linejoin="round"/>
<text x="104" y="558" font-family="Apple SD Gothic Neo, Nanum Gothic, Noto Sans CJK KR, Noto Sans KR, sans-serif" font-size="20" fill="#64748b">공식 교육기관 안내와 영업신고증 업종명을 같이 확인하세요.</text>

</svg>