<svg xmlns="http://www.w3.org/2000/svg" width="1200" height="675"><rect width="1200" height="675" fill="#f0fdf4"/><rect x="80" y="54" width="1040" height="570" rx="44" fill="#fff" stroke="#bbf7d0"/><text x="600" y="138" text-anchor="middle" font-family="Apple SD Gothic Neo, Pretendard, Noto Sans KR, sans-serif" font-size="58" font-weight="900" fill="#111827">직원 1명 채용 전 체크리스트</text><g><circle cx="155" cy="210" r="24" fill="#10b981"/><path d="M143 210 l9 10 l17 -22" fill="none" stroke="#fff" stroke-width="7" stroke-linecap="round" stroke-linejoin="round"/><text x="205" y="220" font-family="Apple SD Gothic Neo, Pretendard, Noto Sans KR, sans-serif" font-size="31" font-weight="750" fill="#111827">근로계약서에 실제 근무시간 적기</text></g><g><circle cx="155" cy="282" r="24" fill="#10b981"/><path d="M143 282 l9 10 l17 -22" fill="none" stroke="#fff" stroke-width="7" stroke-linecap="round" stroke-linejoin="round"/><text x="205" y="292" font-family="Apple SD Gothic Neo, Pretendard, Noto Sans KR, sans-serif" font-size="31" font-weight="750" fill="#111827">휴게시간과 연장근로를 따로 보기</text></g><g><circle cx="155" cy="354" r="24" fill="#10b981"/><path d="M143 354 l9 10 l17 -22" fill="none" stroke="#fff" stroke-width="7" stroke-linecap="round" stroke-linejoin="round"/><text x="205" y="364" font-family="Apple SD Gothic Neo, Pretendard, Noto Sans KR, sans-serif" font-size="31" font-weight="750" fill="#111827">주휴수당 대상 여부 확인하기</text></g><g><circle cx="155" cy="426" r="24" fill="#10b981"/><path d="M143 426 l9 10 l17 -22" fill="none" stroke="#fff" stroke-width="7" stroke-linecap="round" stroke-linejoin="round"/><text x="205" y="436" font-family="Apple SD Gothic Neo, Pretendard, Noto Sans KR, sans-serif" font-size="31" font-weight="750" fill="#111827">4대보험·원천세 처리 방식 메모</text></g><g><circle cx="155" cy="498" r="24" fill="#10b981"/><path d="M143 498 l9 10 l17 -22" fill="none" stroke="#fff" stroke-width="7" stroke-linecap="round" stroke-linejoin="round"/><text x="205" y="508" font-family="Apple SD Gothic Neo, Pretendard, Noto Sans KR, sans-serif" font-size="31" font-weight="750" fill="#111827">급여명세서 발급 준비하기</text></g><rect x="145" y="575" width="910" height="42" rx="21" fill="#dcfce7"/><text x="600" y="604" text-anchor="middle" font-family="Apple SD Gothic Neo, Pretendard, Noto Sans KR, sans-serif" font-size="22" font-weight="700" fill="#166534">애매하면 공식 안내나 전문가 확인 후 적용하세요</text></svg>