<svg xmlns="http://www.w3.org/2000/svg" width="1200" height="675" viewBox="0 0 1200 675">
  <rect width="1200" height="675" fill="#f6f8fc"/>
  <rect x="48" y="48" width="1104" height="579" rx="44" fill="#fff" stroke="#d7e1ef" stroke-width="2"/>
  <text x="132" y="116" font-family="Apple SD Gothic Neo, Nanum Gothic, Noto Sans CJK KR, Noto Sans KR, sans-serif" font-size="25" font-weight="800" fill="#2563eb">작은 사업자 3분 점검</text>
  <line x1="132" y1="138" x2="430" y2="138" stroke="#2563eb" stroke-width="5" stroke-linecap="round" opacity="0.22"/>
  <text x="132" y="188" font-family="Apple SD Gothic Neo, Nanum Gothic, Noto Sans CJK KR, Noto Sans KR, sans-serif" font-size="54" font-weight="800" fill="#0f172a">현금영수증</text><text x="132" y="254" font-family="Apple SD Gothic Neo, Nanum Gothic, Noto Sans CJK KR, Noto Sans KR, sans-serif" font-size="54" font-weight="800" fill="#0f172a">가맹점 가입</text>
  <rect x="710" y="160" width="260" height="330" rx="40" fill="#dbeafe"/><rect x="755" y="220" width="170" height="34" rx="12" fill="#ffffff"/><rect x="755" y="286" width="170" height="34" rx="12" fill="#ffffff"/><rect x="755" y="352" width="120" height="34" rx="12" fill="#ffffff"/><circle cx="940" cy="470" r="56" fill="#2563eb"/><path d="M915 470 l17 18 l33 -42" fill="none" stroke="white" stroke-width="12" stroke-linecap="round" stroke-linejoin="round"/>
  <rect x="132" y="340" width="470" height="50" rx="19" fill="#ffffff" stroke="#dbe4ee"/><text x="166" y="373" font-family="Apple SD Gothic Neo, Nanum Gothic, Noto Sans CJK KR, Noto Sans KR, sans-serif" font-size="24" font-weight="700" fill="#172033">대상인지 먼저 보기</text><rect x="132" y="410" width="470" height="50" rx="19" fill="#ffffff" stroke="#dbe4ee"/><text x="166" y="443" font-family="Apple SD Gothic Neo, Nanum Gothic, Noto Sans CJK KR, Noto Sans KR, sans-serif" font-size="24" font-weight="700" fill="#172033">기한은 공식 안내로 확인</text><rect x="132" y="480" width="470" height="50" rx="19" fill="#ffffff" stroke="#dbe4ee"/><text x="166" y="513" font-family="Apple SD Gothic Neo, Nanum Gothic, Noto Sans CJK KR, Noto Sans KR, sans-serif" font-size="24" font-weight="700" fill="#172033">가산세 문구는 단정 금지</text>
  <text x="132" y="606" font-family="Apple SD Gothic Neo, Nanum Gothic, Noto Sans CJK KR, Noto Sans KR, sans-serif" font-size="21" font-weight="700" fill="#64748b">공식 안내 확인 전, 순서만 먼저 잡는 무료 체크 글</text>
</svg>