<svg xmlns="http://www.w3.org/2000/svg" width="1200" height="675" viewBox="0 0 1200 675">
  <rect width="1200" height="675" fill="#f6f8fc"/>
  <rect x="48" y="48" width="1104" height="579" rx="44" fill="#fff" stroke="#d7e1ef" stroke-width="2"/>
  <text x="132" y="116" font-family="Apple SD Gothic Neo, Nanum Gothic, Noto Sans CJK KR, Noto Sans KR, sans-serif" font-size="25" font-weight="800" fill="#0f766e">현금·계좌이체가 있다면</text>
  <line x1="132" y1="138" x2="430" y2="138" stroke="#0f766e" stroke-width="5" stroke-linecap="round" opacity="0.22"/>
  <text x="132" y="188" font-family="Apple SD Gothic Neo, Nanum Gothic, Noto Sans CJK KR, Noto Sans KR, sans-serif" font-size="54" font-weight="800" fill="#0f172a">문자 받기 전</text><text x="132" y="254" font-family="Apple SD Gothic Neo, Nanum Gothic, Noto Sans CJK KR, Noto Sans KR, sans-serif" font-size="54" font-weight="800" fill="#0f172a">확인 순서</text>
  <circle cx="255" cy="430" r="86" fill="#dbeafe"/><text x="255" y="460" text-anchor="middle" font-family="Apple SD Gothic Neo, Nanum Gothic, Noto Sans CJK KR, Noto Sans KR, sans-serif" font-size="76" font-weight="800" fill="#0f766e">₩</text>
  <rect x="610" y="188" width="430" height="82" rx="24" fill="#ffffff" stroke="#cbd5e1" stroke-width="2"/><circle cx="650" cy="229" r="17" fill="#0f766e"/><path d="M642 229 l6 7 l13 -16" fill="none" stroke="white" stroke-width="5" stroke-linecap="round" stroke-linejoin="round"/><text x="686" y="236" font-family="Apple SD Gothic Neo, Nanum Gothic, Noto Sans CJK KR, Noto Sans KR, sans-serif" font-size="28" font-weight="700" fill="#0f172a">현금 결제 여부</text><rect x="610" y="300" width="430" height="82" rx="24" fill="#ffffff" stroke="#cbd5e1" stroke-width="2"/><circle cx="650" cy="341" r="17" fill="#0f766e"/><path d="M642 341 l6 7 l13 -16" fill="none" stroke="white" stroke-width="5" stroke-linecap="round" stroke-linejoin="round"/><text x="686" y="348" font-family="Apple SD Gothic Neo, Nanum Gothic, Noto Sans CJK KR, Noto Sans KR, sans-serif" font-size="28" font-weight="700" fill="#0f172a">소비자 상대 업종</text><rect x="610" y="412" width="430" height="82" rx="24" fill="#ffffff" stroke="#cbd5e1" stroke-width="2"/><circle cx="650" cy="453" r="17" fill="#0f766e"/><path d="M642 453 l6 7 l13 -16" fill="none" stroke="white" stroke-width="5" stroke-linecap="round" stroke-linejoin="round"/><text x="686" y="460" font-family="Apple SD Gothic Neo, Nanum Gothic, Noto Sans CJK KR, Noto Sans KR, sans-serif" font-size="28" font-weight="700" fill="#0f172a">국세청 안내문 확인</text>
  <text x="132" y="606" font-family="Apple SD Gothic Neo, Nanum Gothic, Noto Sans CJK KR, Noto Sans KR, sans-serif" font-size="21" font-weight="700" fill="#64748b">공식 안내 확인 전, 순서만 먼저 잡는 무료 체크 글</text>
</svg>