<svg xmlns="http://www.w3.org/2000/svg" width="1200" height="675" viewBox="0 0 1200 675">
<rect width="1200" height="675" fill="#f8fafc"/>
<rect x="48" y="48" width="1104" height="579" rx="34" fill="#eef6ff" stroke="#dbeafe" stroke-width="2"/>
<rect x="72" y="72" width="1056" height="531" rx="26" fill="#ffffff"/>
<text x="90" y="116" font-size="24" font-weight="700" fill="#2563eb">개인사업자 먼저 보는 순서</text>
<line x1="90" y1="136" x2="430" y2="136" stroke="#2563eb" stroke-width="5" stroke-linecap="round" opacity="0.35"/>
<text x="90" y="192" font-size="48" font-weight="800" fill="#111827">전자세금계산서</text><text x="90" y="254" font-size="48" font-weight="800" fill="#111827">의무인가요?</text>
<text x="92" y="326" font-size="26" fill="#475569">홈택스 자료와 국세청 안내를 같이 확인하세요.</text>
<rect x="610" y="278" width="480" height="70" rx="18" fill="#ffffff" stroke="#dbeafe" stroke-width="2"/><circle cx="648" cy="313" r="15" fill="#2563eb"/><text x="648" y="319" font-size="16" font-weight="700" text-anchor="middle" fill="#fff">1</text><text x="682" y="321" font-size="25" font-weight="700" fill="#172554">직전연도 공급가액</text><rect x="610" y="368" width="480" height="70" rx="18" fill="#ffffff" stroke="#dbeafe" stroke-width="2"/><circle cx="648" cy="403" r="15" fill="#2563eb"/><text x="648" y="409" font-size="16" font-weight="700" text-anchor="middle" fill="#fff">2</text><text x="682" y="411" font-size="25" font-weight="700" fill="#172554">의무기간 확인</text><rect x="610" y="458" width="480" height="70" rx="18" fill="#ffffff" stroke="#dbeafe" stroke-width="2"/><circle cx="648" cy="493" r="15" fill="#2563eb"/><text x="648" y="499" font-size="16" font-weight="700" text-anchor="middle" fill="#fff">3</text><text x="682" y="501" font-size="25" font-weight="700" fill="#172554">가산세 안내 확인</text>
<text x="90" y="606" font-size="20" fill="#64748b">일반 안내입니다. 최종 판단은 홈택스·126·세무대리인에게 확인하세요.</text>
<circle cx="1040" cy="150" r="58" fill="#2563eb" opacity="0.10"/>
<circle cx="1085" cy="205" r="32" fill="#14b8a6" opacity="0.12"/>
</svg>