<svg xmlns="http://www.w3.org/2000/svg" width="1200" height="675" viewBox="0 0 1200 675">
<rect width="1200" height="675" fill="#f8fafc"/>
<rect x="48" y="48" width="1104" height="579" rx="34" fill="#eef6ff" stroke="#dbeafe" stroke-width="2"/>
<rect x="72" y="72" width="1056" height="531" rx="26" fill="#ffffff"/>
<text x="90" y="116" font-size="24" font-weight="700" fill="#7c3aed">늦게 고치기 전에 확인</text>
<line x1="90" y1="136" x2="430" y2="136" stroke="#7c3aed" stroke-width="5" stroke-linecap="round" opacity="0.35"/>
<text x="90" y="192" font-size="48" font-weight="800" fill="#111827">발급 전</text><text x="90" y="254" font-size="48" font-weight="800" fill="#111827">체크리스트</text>
<text x="92" y="326" font-size="26" fill="#475569">홈택스 자료와 국세청 안내를 같이 확인하세요.</text>
<rect x="610" y="278" width="480" height="70" rx="18" fill="#ffffff" stroke="#dbeafe" stroke-width="2"/><circle cx="648" cy="313" r="15" fill="#7c3aed"/><text x="648" y="319" font-size="16" font-weight="700" text-anchor="middle" fill="#fff">1</text><text x="682" y="321" font-size="25" font-weight="700" fill="#172554">거래처 번호·메일</text><rect x="610" y="368" width="480" height="70" rx="18" fill="#ffffff" stroke="#dbeafe" stroke-width="2"/><circle cx="648" cy="403" r="15" fill="#7c3aed"/><text x="648" y="409" font-size="16" font-weight="700" text-anchor="middle" fill="#fff">2</text><text x="682" y="411" font-size="25" font-weight="700" fill="#172554">공급일자·작성일자</text><rect x="610" y="458" width="480" height="70" rx="18" fill="#ffffff" stroke="#dbeafe" stroke-width="2"/><circle cx="648" cy="493" r="15" fill="#7c3aed"/><text x="648" y="499" font-size="16" font-weight="700" text-anchor="middle" fill="#fff">3</text><text x="682" y="501" font-size="25" font-weight="700" fill="#172554">수정발급 사유</text>
<text x="90" y="606" font-size="20" fill="#64748b">숫자 하나로 단정하지 말고 상황별 적용 여부를 확인하세요.</text>
<circle cx="1040" cy="150" r="58" fill="#7c3aed" opacity="0.10"/>
<circle cx="1085" cy="205" r="32" fill="#14b8a6" opacity="0.12"/>
</svg>